<svg width="1725" height="226" viewBox="0 0 1725 226" fill="none" xmlns="http://www.w3.org/2000/svg">
    <g clip-path="url(#clip0_986_521)">
        <path d="M0 132.977L82.8824 87.1819L131.552 175.525L48.6698 221.32L0 132.977Z" fill="#0F9D58" />
        <path d="M49.332 148.933L70.0526 137.484L82.2201 159.57L61.4995 171.018L49.332 148.933Z" fill="#0F9D58" />
    </g>
    <path
        d="M124.346 123.999C152.151 131.991 181.17 115.929 189.162 88.1233L88.4707 59.1816C80.4786 86.9873 96.5402 116.006 124.346 123.999Z"
        fill="#EA4335" />
    <path d="M181.5 105.182L143 163.182H220L181.5 105.182Z" fill="#FCCA23" />
    <path
        d="M317.474 103.308C298.433 132.101 306.338 170.873 335.132 189.914L356.139 158.147C344.892 150.709 341.809 135.566 349.247 124.319C356.681 113.077 371.823 109.985 383.07 117.423L404.077 85.6556C375.284 66.6148 336.512 74.5195 317.474 103.308Z"
        fill="#FBBC04" />
    <path
        d="M1479.94 30.2068C1461.94 46.8925 1460.88 75.0072 1477.56 93.0079L1497.42 74.599C1490.9 67.5679 1491.32 56.5874 1498.35 50.0697C1505.38 43.5551 1516.36 43.9684 1522.88 50.9995L1542.74 32.5906C1526.05 14.5902 1497.94 13.5242 1479.94 30.2068Z"
        fill="#4285F4" />
    <circle cx="421" cy="148.182" r="42" fill="#4285F4" />
    <circle cx="678" cy="96.1816" r="42" fill="#FBBC04" />
    <circle cx="493" cy="133.182" r="13" fill="#FCCA23" />
    <circle cx="313" cy="69.1816" r="22" fill="#EA4335" />
    <circle cx="207.5" cy="120.682" r="13.5" fill="#0F9D58" />
    <rect x="394" y="78.0918" width="32" height="95" transform="rotate(-60.7136 394 78.0918)" fill="#0F9D58" />
    <path d="M545.651 197.578L616.546 130.415L511.245 106.182L545.651 197.578Z" fill="#4285F4" />
    <g clip-path="url(#clip1_986_521)">
        <path d="M1208.92 51.1016L1258.1 84.0835L1226.38 127.214L1177.2 94.2324L1208.92 51.1016Z" fill="#FBBC04" />
        <path d="M1215.47 79.6436L1227.76 87.889L1219.83 98.6717L1207.54 90.4263L1215.47 79.6436Z" fill="#FBBC04" />
    </g>
    <g clip-path="url(#clip2_986_521)">
        <path d="M1241.27 107.209L1278.07 89.182L1338.73 202.751L1301.93 220.778L1241.27 107.209Z" fill="#EA4335" />
        <path d="M1277.82 143.037L1287.02 138.53L1302.18 166.923L1292.98 171.429L1277.82 143.037Z" fill="#EA4335" />
    </g>
    <path d="M1164.64 114.793L1182.39 200.449L1253.27 135.485L1164.64 114.793Z" fill="#34AD5C" />
    <g clip-path="url(#clip3_986_521)">
        <path d="M592 83.2764L622.649 70.1821L662.162 162.983L631.512 176.078L592 83.2764Z" fill="#EA4335" />
        <path d="M618.311 113.167L625.973 109.893L635.851 133.094L628.189 136.367L618.311 113.167Z" fill="#EA4335" />
    </g>
    <path
        d="M1119.84 87.8842C1103.51 112.021 1110.22 143.935 1134.84 159.166L1193.99 71.7607C1169.37 56.529 1136.17 63.7477 1119.84 87.8842Z"
        fill="#4285F4" />
    <path d="M703.687 120.85L665.226 210.615L771.507 191.117L703.687 120.85Z" fill="#34AD5C" />
    <g clip-path="url(#clip4_986_521)">
        <path d="M560.66 60.1816L592.198 91.8706L562.538 121.317L531 89.6279L560.66 60.1816Z" fill="#FBBC04" />
        <path d="M561.364 83.1074L569.249 91.0297L561.834 98.3912L553.949 90.469L561.364 83.1074Z" fill="#FBBC04" />
    </g>
    <path
        d="M1054.49 124.182C1020.68 124.182 993.268 152.388 993.268 187.182L1115.71 187.182C1115.71 152.387 1088.3 124.182 1054.49 124.182Z"
        fill="#FBBC04" />
    <g clip-path="url(#clip5_986_521)">
        <path d="M1039 59.1816L1066.61 42.2113L1112.55 111.383L1084.94 128.354L1039 59.1816Z" fill="#34A853" />
        <path d="M1066.58 78.7568L1073.48 74.5142L1084.97 91.8073L1078.06 96.0499L1066.58 78.7568Z" fill="#34A853" />
    </g>
    <ellipse cx="958" cy="80.1816" rx="31" ry="29" fill="#FBBC04" />
    <path d="M931.802 102.724L943.188 189.454L1018.66 129.885L931.802 102.724Z" fill="#4285F4" />
    <ellipse cx="1029.77" cy="104.682" rx="24.5" ry="22.5" fill="#EA4335" />
    <g clip-path="url(#clip6_986_521)">
        <path d="M242.848 74.1816L312.695 95.545L289.848 169.916L220 148.552L242.848 74.1816Z" fill="#4285F4" />
        <path d="M260.473 110.082L277.934 115.423L272.223 134.016L254.761 128.675L260.473 110.082Z" fill="#4285F4" />
    </g>
    <g clip-path="url(#clip7_986_521)">
        <path d="M828.12 131.182L843.087 135.759L839.967 145.916L825 141.338L828.12 131.182Z" fill="#4285F4" />
        <path d="M832.563 136.707L836.305 137.851L835.525 140.391L831.783 139.246L832.563 136.707Z" fill="#4285F4" />
    </g>
    <g clip-path="url(#clip8_986_521)">
        <path d="M730 108.75L787.431 61.1814L838.211 122.644L780.78 170.213L730 108.75Z" fill="#0F9D58" />
        <path d="M770.579 113.96L784.937 102.068L797.632 117.434L783.274 129.326L770.579 113.96Z" fill="#0F9D58" />
    </g>
    <path
        d="M852.845 122.772C874.213 133.562 900.625 124.307 911.839 102.1L834.459 63.0264C823.245 85.2334 831.477 111.982 852.845 122.772Z"
        fill="#EA4335" />
    <path d="M894.5 118.182L866 161.182H923L894.5 118.182Z" fill="#FCCA23" />
    <rect x="197.079" y="98.1719" width="32" height="95" transform="rotate(-118.113 197.079 98.1719)" fill="#FBBC04" />
    <g clip-path="url(#clip9_986_521)">
        <path d="M1320 136.977L1402.88 91.1819L1451.55 179.525L1368.67 225.32L1320 136.977Z" fill="#0F9D58" />
        <path d="M1369.33 152.933L1390.05 141.484L1402.22 163.57L1381.5 175.018L1369.33 152.933Z" fill="#0F9D58" />
    </g>
    <path
        d="M1444.35 127.999C1472.15 135.991 1501.17 119.929 1509.16 92.1233L1408.47 63.1816C1400.48 90.9873 1416.54 120.006 1444.35 127.999Z"
        fill="#EA4335" />
    <path d="M1501.5 109.182L1463 167.182H1540L1501.5 109.182Z" fill="#FCCA23" />
    <path
        d="M1637.47 107.308C1618.43 136.101 1626.34 174.873 1655.13 193.914L1676.14 162.147C1664.89 154.709 1661.81 139.566 1669.25 128.319C1676.68 117.077 1691.82 113.985 1703.07 121.423L1724.08 89.6556C1695.28 70.6148 1656.51 78.5195 1637.47 107.308Z"
        fill="#FBBC04" />
    <circle cx="1633" cy="73.1816" r="22" fill="#EA4335" />
    <circle cx="1527.5" cy="124.682" r="13.5" fill="#0F9D58" />
    <g clip-path="url(#clip10_986_521)">
        <path d="M1562.85 78.1816L1632.69 99.545L1609.85 173.916L1540 152.552L1562.85 78.1816Z" fill="#4285F4" />
        <path d="M1580.47 114.082L1597.93 119.423L1592.22 138.016L1574.76 132.675L1580.47 114.082Z" fill="#4285F4" />
    </g>
    <rect x="1517.08" y="102.172" width="32" height="95" transform="rotate(-118.113 1517.08 102.172)" fill="#FBBC04" />
    <path
        d="M1356.3 110.639C1376.06 96.4874 1379.3 67.181 1363.54 45.1818L1292 96.4307C1307.76 118.43 1336.55 124.791 1356.3 110.639Z"
        fill="#4285F4" />
    <defs>
        <clipPath id="clip0_986_521">
            <rect width="94.6924" height="100.863" fill="white"
                transform="matrix(0.875281 -0.483615 0.482535 0.875877 0 132.977)" />
        </clipPath>
        <clipPath id="clip1_986_521">
            <rect width="59.2156" height="53.5381" fill="white"
                transform="matrix(0.830526 0.55698 -0.592445 0.805611 1208.92 51.1016)" />
        </clipPath>
        <clipPath id="clip2_986_521">
            <rect width="40.9774" height="128.755" fill="white"
                transform="matrix(0.898034 -0.439925 0.471147 0.882055 1241.27 107.209)" />
        </clipPath>
        <clipPath id="clip3_986_521">
            <rect width="33.3291" height="100.863" fill="white"
                transform="matrix(0.91959 -0.392879 0.391744 0.920074 592 83.2764)" />
        </clipPath>
        <clipPath id="clip4_986_521">
            <rect width="44.7086" height="41.7948" fill="white"
                transform="matrix(0.705419 0.70879 -0.70966 0.704544 560.66 60.1816)" />
        </clipPath>
        <clipPath id="clip5_986_521">
            <rect width="32.4069" height="83.0362" fill="white"
                transform="matrix(0.851924 -0.523665 0.553218 0.833036 1039 59.1816)" />
        </clipPath>
        <clipPath id="clip6_986_521">
            <rect width="73.0413" height="77.8009" fill="white"
                transform="matrix(0.956271 0.292483 -0.293662 0.955909 242.848 74.1816)" />
        </clipPath>
        <clipPath id="clip7_986_521">
            <rect width="15.6516" height="10.6245" fill="white"
                transform="matrix(0.956271 0.292483 -0.293662 0.955909 828.12 131.182)" />
        </clipPath>
        <clipPath id="clip8_986_521">
            <rect width="74.5731" height="79.7262" fill="white"
                transform="matrix(0.770137 -0.637879 0.636928 0.770923 730 108.75)" />
        </clipPath>
        <clipPath id="clip9_986_521">
            <rect width="94.6924" height="100.863" fill="white"
                transform="matrix(0.875281 -0.483615 0.482535 0.875877 1320 136.977)" />
        </clipPath>
        <clipPath id="clip10_986_521">
            <rect width="73.0413" height="77.8009" fill="white"
                transform="matrix(0.956271 0.292483 -0.293662 0.955909 1562.85 78.1816)" />
        </clipPath>
    </defs>
</svg>